<?xml version="1.0" encoding="utf-8"?>
<!-- Generator: Adobe Illustrator 25.0.1, SVG Export Plug-In . SVG Version: 6.00 Build 0)  -->
<svg version="1.1" id="Ebene_1" xmlns="http://www.w3.org/2000/svg" xmlns:xlink="http://www.w3.org/1999/xlink" x="0px" y="0px"
	 viewBox="0 0 242 62" style="enable-background:new 0 0 242 62;" xml:space="preserve">
<style type="text/css">
	.st0{fill:#FFFFFF;}
	.st1{fill:url(#SVGID_1_);}
	.st2{fill:url(#SVGID_2_);}
	.st3{fill:url(#SVGID_3_);}
	.st4{fill:url(#SVGID_4_);}
	.st5{fill:url(#SVGID_5_);}
</style>
<path class="st0" d="M55.42,17.21c-2.44-4.29-5.8-7.57-10.07-9.86c-4.27-2.29-9.15-3.43-14.62-3.43H9.2v57.52h21.53
	c5.47,0,10.35-1.15,14.62-3.43c4.27-2.29,7.63-5.58,10.07-9.86c2.44-4.29,3.65-9.45,3.65-15.47C59.07,26.65,57.86,21.5,55.42,17.21z
	 M45.68,43.03c-1.26,2.9-3.14,5.14-5.63,6.7c-2.49,1.56-5.6,2.34-9.32,2.34H19.72V13.29h11.01c3.72,0,6.83,0.78,9.32,2.34
	c2.49,1.56,4.37,3.79,5.63,6.69c1.26,2.91,1.89,6.36,1.89,10.36S46.94,40.13,45.68,43.03z"/>
<linearGradient id="SVGID_1_" gradientUnits="userSpaceOnUse" x1="68.3555" y1="32.681" x2="78.8731" y2="32.681">
	<stop  offset="0" style="stop-color:#575756"/>
	<stop  offset="0.0169" style="stop-color:#656564"/>
	<stop  offset="0.0681" style="stop-color:#898988"/>
	<stop  offset="0.1258" style="stop-color:#A9A9A8"/>
	<stop  offset="0.1895" style="stop-color:#C4C4C4"/>
	<stop  offset="0.2615" style="stop-color:#DADADA"/>
	<stop  offset="0.3455" style="stop-color:#EBEBEB"/>
	<stop  offset="0.4495" style="stop-color:#F6F6F6"/>
	<stop  offset="0.5953" style="stop-color:#FDFDFD"/>
	<stop  offset="1" style="stop-color:#FFFFFF"/>
</linearGradient>
<path class="st1" d="M68.36,61.44V3.92h10.52v57.52H68.36z"/>
<linearGradient id="SVGID_2_" gradientUnits="userSpaceOnUse" x1="84.0923" y1="32.6827" x2="119.0522" y2="32.6827">
	<stop  offset="0.05" style="stop-color:#575756"/>
	<stop  offset="0.0591" style="stop-color:#5E5E5D"/>
	<stop  offset="0.1153" style="stop-color:#848483"/>
	<stop  offset="0.1778" style="stop-color:#A5A5A5"/>
	<stop  offset="0.2462" style="stop-color:#C1C1C1"/>
	<stop  offset="0.3224" style="stop-color:#D8D8D8"/>
	<stop  offset="0.4099" style="stop-color:#EAEAE9"/>
	<stop  offset="0.5157" style="stop-color:#F6F6F6"/>
	<stop  offset="0.6587" style="stop-color:#FDFDFD"/>
	<stop  offset="1" style="stop-color:#FFFFFF"/>
</linearGradient>
<path class="st2" d="M84.09,3.92v10.19h8.17v47.33h10.52V14.11h16.27V3.92H84.09z"/>
<linearGradient id="SVGID_3_" gradientUnits="userSpaceOnUse" x1="169.1722" y1="41.3077" x2="195.7123" y2="41.3077">
	<stop  offset="0.0369" style="stop-color:#575756"/>
	<stop  offset="0.0462" style="stop-color:#5E5E5D"/>
	<stop  offset="0.1032" style="stop-color:#848483"/>
	<stop  offset="0.1666" style="stop-color:#A5A5A5"/>
	<stop  offset="0.2358" style="stop-color:#C1C1C1"/>
	<stop  offset="0.3131" style="stop-color:#D8D8D8"/>
	<stop  offset="0.4018" style="stop-color:#EAEAE9"/>
	<stop  offset="0.5091" style="stop-color:#F6F6F6"/>
	<stop  offset="0.654" style="stop-color:#FDFDFD"/>
	<stop  offset="1" style="stop-color:#FFFFFF"/>
</linearGradient>
<path class="st3" d="M195.6,49.84c-0.6,0.72-1.65,1.72-2.37,2.24c-1.52,1.09-3.43,1.64-5.74,1.64c-2.87,0-4.95-0.92-6.22-2.77
	c-1.27-1.85-1.91-4.68-1.91-8.48V20.35h-10.19v22.11c0,3.86,0.56,7.27,1.69,10.25c1.12,2.97,2.95,5.3,5.5,7
	c2.55,1.7,5.96,2.55,10.23,2.55c2.11,0,4.23-0.54,6.35-1.6c0.85-0.43,1.61-0.88,2.28-1.34c0.17-0.11,0.33-0.23,0.49-0.35"/>
<path class="st0" d="M235.72,30.38c-1.41-3.24-3.49-5.82-6.23-7.77c-2.73-1.94-6.12-2.92-10.14-2.92c-2.88,0-5.43,0.53-7.67,1.57
	c-1.26,0.59-2.46,1.31-3.59,2.17V-0.19H197.9v61.63h10.18v-2.42c1.02,0.65,2.08,1.23,3.17,1.72c2.28,1.01,4.97,1.52,8.1,1.52
	c4.02,0,7.41-0.98,10.14-2.92c2.74-1.94,4.82-4.53,6.23-7.76c1.41-3.24,2.11-6.77,2.11-10.6C237.83,37.14,237.13,33.61,235.72,30.38
	z M226.29,47.69c-0.74,1.93-1.82,3.45-3.25,4.54c-1.42,1.1-3.15,1.65-5.17,1.65c-2.39,0-4.33-0.55-5.84-1.65
	c-1.5-1.09-2.62-2.61-3.34-4.54c-0.24-0.65-0.45-1.33-0.61-2.05c-0.32-1.42-0.48-2.97-0.48-4.66s0.16-3.25,0.48-4.67
	c0.16-0.72,0.37-1.4,0.61-2.05c0.72-1.93,1.84-3.45,3.34-4.54c1.51-1.1,3.45-1.64,5.84-1.64c2.02,0,3.75,0.54,5.17,1.64
	c1.43,1.09,2.51,2.61,3.25,4.54c0.74,1.93,1.11,4.17,1.11,6.72C227.4,43.52,227.03,45.76,226.29,47.69z"/>
<linearGradient id="SVGID_4_" gradientUnits="userSpaceOnUse" x1="19.7178" y1="32.6834" x2="59.0678" y2="32.6834">
	<stop  offset="0" style="stop-color:#575756"/>
	<stop  offset="0.0169" style="stop-color:#656564"/>
	<stop  offset="0.0681" style="stop-color:#898988"/>
	<stop  offset="0.1258" style="stop-color:#A9A9A8"/>
	<stop  offset="0.1895" style="stop-color:#C4C4C4"/>
	<stop  offset="0.2615" style="stop-color:#DADADA"/>
	<stop  offset="0.3455" style="stop-color:#EBEBEB"/>
	<stop  offset="0.4495" style="stop-color:#F6F6F6"/>
	<stop  offset="0.5953" style="stop-color:#FDFDFD"/>
	<stop  offset="1" style="stop-color:#FFFFFF"/>
</linearGradient>
<path class="st4" d="M59.07,32.68c0,6.02-1.21,11.18-3.65,15.47c-2.44,4.28-5.8,7.57-10.07,9.86c-4.27,2.28-9.15,3.43-14.62,3.43
	H19.72v-9.37h11.01c3.72,0,6.83-0.78,9.32-2.34c2.49-1.56,4.37-3.8,5.63-6.7c1.26-2.9,1.89-6.35,1.89-10.35s-0.63-7.45-1.89-10.36
	c-1.26-2.9-3.14-5.13-5.63-6.69c-2.49-1.56-5.6-2.34-9.32-2.34H19.72V3.92h11.01c5.47,0,10.35,1.14,14.62,3.43
	c4.27,2.29,7.63,5.57,10.07,9.86C57.86,21.5,59.07,26.65,59.07,32.68z"/>
<linearGradient id="SVGID_5_" gradientUnits="userSpaceOnUse" x1="134.7422" y1="40.5727" x2="160.7923" y2="40.5727">
	<stop  offset="0.0369" style="stop-color:#575756"/>
	<stop  offset="0.0462" style="stop-color:#5E5E5D"/>
	<stop  offset="0.1032" style="stop-color:#848483"/>
	<stop  offset="0.1666" style="stop-color:#A5A5A5"/>
	<stop  offset="0.2358" style="stop-color:#C1C1C1"/>
	<stop  offset="0.3131" style="stop-color:#D8D8D8"/>
	<stop  offset="0.4018" style="stop-color:#EAEAE9"/>
	<stop  offset="0.5091" style="stop-color:#F6F6F6"/>
	<stop  offset="0.654" style="stop-color:#FDFDFD"/>
	<stop  offset="1" style="stop-color:#FFFFFF"/>
</linearGradient>
<path class="st5" d="M160.79,38.59v22.85H150.6V39.33c0-3.83-0.61-6.67-1.85-8.5c-1.23-1.84-3.24-2.75-6.04-2.75
	c-2.38,0-4.33,0.55-5.85,1.66c-0.75,0.55-1.46,1.2-2.12,1.94v-8.62c1.06-0.65,2.17-1.26,3.33-1.84c2.03-1.02,4.45-1.52,7.27-1.52
	c3.62,0,6.56,0.8,8.84,2.4c2.27,1.6,3.94,3.82,5.01,6.65C160.26,31.59,160.79,34.87,160.79,38.59z"/>
</svg>
